<svg width="266" height="73" viewBox="0 0 266 73" fill="none" xmlns="http://www.w3.org/2000/svg">
<path d="M100.467 29.5846V49.4669C100.467 52.2261 99.6688 54.3767 98.0728 55.9186C96.4768 57.4334 94.3398 58.1908 91.6618 58.1908C88.9567 58.1908 86.7656 57.4064 85.0884 55.8374C83.4383 54.2685 82.6133 52.0773 82.6133 49.2641H88.294C88.321 50.4813 88.605 51.4281 89.1461 52.1044C89.7141 52.7807 90.5256 53.1188 91.5806 53.1188C92.6086 53.1188 93.393 52.7942 93.9341 52.145C94.4751 51.4957 94.7456 50.6031 94.7456 49.4669V29.5846H100.467ZM117.075 58.272C114.911 58.272 112.963 57.7986 111.232 56.8518C109.501 55.878 108.135 54.5119 107.134 52.7536C106.16 50.9953 105.673 48.9665 105.673 46.6672C105.673 44.3678 106.174 42.339 107.175 40.5807C108.203 38.8224 109.596 37.4699 111.354 36.5231C113.112 35.5493 115.073 35.0624 117.238 35.0624C119.402 35.0624 121.363 35.5493 123.121 36.5231C124.879 37.4699 126.259 38.8224 127.26 40.5807C128.288 42.339 128.802 44.3678 128.802 46.6672C128.802 48.9665 128.274 50.9953 127.219 52.7536C126.191 54.5119 124.785 55.878 122.999 56.8518C121.241 57.7986 119.266 58.272 117.075 58.272ZM117.075 53.3217C118.103 53.3217 119.063 53.0782 119.956 52.5913C120.876 52.0773 121.606 51.3199 122.147 50.319C122.688 49.3182 122.959 48.1009 122.959 46.6672C122.959 44.5302 122.391 42.8936 121.255 41.7574C120.145 40.5943 118.779 40.0127 117.156 40.0127C115.533 40.0127 114.167 40.5943 113.058 41.7574C111.976 42.8936 111.435 44.5302 111.435 46.6672C111.435 48.8042 111.963 50.4543 113.018 51.6175C114.1 52.7536 115.452 53.3217 117.075 53.3217ZM153.866 46.1803C153.866 46.9918 153.811 47.7222 153.703 48.3714H137.27C137.405 49.9944 137.973 51.2658 138.974 52.1855C139.975 53.1053 141.206 53.5651 142.666 53.5651C144.776 53.5651 146.278 52.6589 147.17 50.8465H153.297C152.648 53.0106 151.404 54.796 149.564 56.2026C147.725 57.5822 145.466 58.272 142.788 58.272C140.624 58.272 138.676 57.7986 136.945 56.8518C135.241 55.878 133.902 54.5119 132.928 52.7536C131.981 50.9953 131.508 48.9665 131.508 46.6672C131.508 44.3408 131.981 42.2985 132.928 40.5402C133.875 38.7818 135.2 37.4293 136.905 36.4825C138.609 35.5357 140.57 35.0624 142.788 35.0624C144.925 35.0624 146.832 35.5222 148.509 36.442C150.214 37.3617 151.526 38.6736 152.445 40.3778C153.392 42.055 153.866 43.9891 153.866 46.1803ZM147.982 44.5572C147.955 43.0965 147.427 41.9333 146.399 41.0676C145.372 40.175 144.114 39.7286 142.626 39.7286C141.219 39.7286 140.029 40.1614 139.055 41.0271C138.108 41.8656 137.527 43.0424 137.31 44.5572H147.982Z" fill="white"/>
<path d="M174.08 43.3805C175.676 43.6781 176.988 44.4761 178.016 45.7745C179.044 47.0729 179.558 48.5607 179.558 50.2379C179.558 51.7527 179.179 53.0917 178.422 54.2549C177.691 55.3911 176.623 56.2837 175.216 56.933C173.81 57.5822 172.146 57.9068 170.225 57.9068H158.012V29.5846H169.698C171.618 29.5846 173.269 29.8956 174.648 30.5178C176.055 31.14 177.11 32.0056 177.813 33.1147C178.544 34.2238 178.909 35.4816 178.909 36.8883C178.909 38.5384 178.462 39.918 177.57 41.0271C176.704 42.1362 175.541 42.9206 174.08 43.3805ZM163.693 41.2705H168.886C170.239 41.2705 171.28 40.973 172.011 40.3778C172.741 39.7557 173.106 38.8765 173.106 37.7404C173.106 36.6043 172.741 35.7251 172.011 35.1029C171.28 34.4808 170.239 34.1697 168.886 34.1697H163.693V41.2705ZM169.414 53.2811C170.793 53.2811 171.862 52.9565 172.619 52.3073C173.404 51.6581 173.796 50.7383 173.796 49.5481C173.796 48.3308 173.39 47.384 172.579 46.7077C171.767 46.0044 170.672 45.6528 169.292 45.6528H163.693V53.2811H169.414ZM182.625 46.586C182.625 44.3137 183.071 42.2985 183.964 40.5402C184.883 38.7818 186.114 37.4293 187.656 36.4825C189.225 35.5357 190.97 35.0624 192.89 35.0624C194.568 35.0624 196.028 35.4005 197.273 36.0768C198.544 36.753 199.558 37.6051 200.316 38.6331V35.4275H206.037V57.9068H200.316V54.6201C199.585 55.6751 198.571 56.5543 197.273 57.2576C196.001 57.9339 194.527 58.272 192.85 58.272C190.956 58.272 189.225 57.7851 187.656 56.8112C186.114 55.8374 184.883 54.4713 183.964 52.713C183.071 50.9277 182.625 48.8853 182.625 46.586ZM200.316 46.6672C200.316 45.2876 200.045 44.1109 199.504 43.137C198.963 42.1362 198.233 41.3787 197.313 40.8648C196.393 40.3237 195.406 40.0532 194.351 40.0532C193.296 40.0532 192.322 40.3102 191.43 40.8242C190.537 41.3382 189.807 42.0956 189.239 43.0965C188.698 44.0703 188.427 45.2335 188.427 46.586C188.427 47.9386 188.698 49.1288 189.239 50.1567C189.807 51.1576 190.537 51.9286 191.43 52.4696C192.349 53.0106 193.323 53.2811 194.351 53.2811C195.406 53.2811 196.393 53.0241 197.313 52.5102C198.233 51.9691 198.963 51.2117 199.504 50.2379C200.045 49.237 200.316 48.0468 200.316 46.6672ZM224.042 35.1029C226.72 35.1029 228.884 35.955 230.534 37.6592C232.184 39.3364 233.01 41.6898 233.01 44.7195V57.9068H227.329V45.4905C227.329 43.7051 226.883 42.339 225.99 41.3923C225.097 40.4184 223.88 39.9315 222.338 39.9315C220.769 39.9315 219.525 40.4184 218.605 41.3923C217.712 42.339 217.266 43.7051 217.266 45.4905V57.9068H211.585V35.4275H217.266V38.2273C218.023 37.2535 218.984 36.4961 220.147 35.955C221.337 35.387 222.636 35.1029 224.042 35.1029ZM251.721 57.9068L244.092 48.3308V57.9068H238.412V27.8804H244.092V44.963L251.639 35.4275H259.024L249.124 46.7077L259.105 57.9068H251.721Z" fill="#FFA500"/>
<path d="M36.0678 0C28.9343 -8.50666e-08 21.9609 2.11534 16.0296 6.07852C10.0983 10.0417 5.47539 15.6747 2.7455 22.2652C0.0156126 28.8558 -0.698651 36.1078 0.693031 43.1043C2.08471 50.1007 5.51984 56.5274 10.564 61.5716C15.6082 66.6157 22.0348 70.0509 29.0313 71.4426C36.0278 72.8342 43.2798 72.12 49.8703 69.3901C56.4609 66.6602 62.0939 62.0373 66.0571 56.106C70.0202 50.1747 72.1356 43.2013 72.1356 36.0678L54.1017 36.0678C54.1017 39.6346 53.044 43.1212 51.0624 46.0869C49.0808 49.0526 46.2643 51.364 42.9691 52.7289C39.6738 54.0939 36.0478 54.451 32.5495 53.7552C29.0513 53.0593 25.838 51.3418 23.3159 48.8197C20.7938 46.2976 19.0763 43.0843 18.3804 39.586C17.6846 36.0878 18.0417 32.4618 19.4066 29.1665C20.7716 25.8713 23.083 23.0547 26.0487 21.0732C29.0144 19.0916 32.501 18.0339 36.0678 18.0339V0Z" fill="white"/>
<path d="M72.1356 36.0678C72.1356 31.3313 71.2027 26.6412 69.3901 22.2652C67.5775 17.8893 64.9208 13.9132 61.5716 10.564C58.2224 7.21481 54.2463 4.55807 49.8703 2.7455C45.4944 0.93292 40.8043 -7.71672e-07 36.0678 0L36.0678 18.0339C38.436 18.0339 40.7811 18.5004 42.9691 19.4066C45.157 20.3129 47.1451 21.6413 48.8197 23.3159C50.4943 24.9905 51.8227 26.9785 52.7289 29.1665C53.6352 31.3545 54.1017 33.6996 54.1017 36.0678H72.1356Z" fill="#FFA500"/>
<circle cx="36.0678" cy="36.0678" r="11.2712" fill="#FFA500"/>
</svg>
