<svg width="39" height="39" viewBox="0 0 39 39" fill="none" xmlns="http://www.w3.org/2000/svg">
<path d="M34.4966 4.13118C33.6963 3.30977 32.5118 3.00375 31.4074 3.32588L5.65282 10.8153C4.48754 11.139 3.6616 12.0683 3.43911 13.2489C3.21182 14.4504 4.00574 15.9757 5.04297 16.6135L13.0959 21.5629C13.9218 22.0703 14.9878 21.943 15.6713 21.2537L24.8927 11.9749C25.3569 11.4917 26.1252 11.4917 26.5894 11.9749C27.0536 12.442 27.0536 13.199 26.5894 13.6822L17.352 22.9625C16.6669 23.6503 16.5389 24.7213 17.0431 25.5524L21.9635 33.686C22.5397 34.6524 23.5321 35.2 24.6206 35.2C24.7486 35.2 24.8927 35.2 25.0207 35.1839C26.2693 35.0228 27.2617 34.1692 27.6298 32.9613L35.2649 7.23968C35.6011 6.14446 35.297 4.9526 34.4966 4.13118" fill="#FFA500"/>
</svg>
