<svg width="40" height="39" viewBox="0 0 40 39" fill="none" xmlns="http://www.w3.org/2000/svg">
<path fill-rule="evenodd" clip-rule="evenodd" d="M19.5649 35.0619C19.7421 35.1544 19.9403 35.2015 20.1384 35.1999C20.3365 35.1984 20.533 35.1497 20.7118 35.0556L26.4204 32.004C28.0393 31.141 29.307 30.1761 30.296 29.0527C32.4464 26.6051 33.6206 23.4813 33.5997 20.2602L33.532 9.63519C33.5256 8.41139 32.7218 7.31939 31.533 6.92244L20.9132 3.35931C20.2737 3.1428 19.573 3.1475 18.9448 3.3703L8.36519 7.06051C7.18287 7.47315 6.39359 8.57299 6.40003 9.79836L6.46769 20.4156C6.48863 23.6414 7.70315 26.7511 9.88898 29.1735C10.8877 30.2812 12.1666 31.232 13.8032 32.0808L19.5649 35.0619ZM18.0537 22.5743C18.2921 22.8034 18.6014 22.9163 18.9107 22.9132C19.2199 22.9116 19.5276 22.7955 19.7628 22.5633L26.0013 16.413C26.4701 15.9501 26.4652 15.2064 25.9917 14.7499C25.5165 14.2933 24.7514 14.2964 24.2826 14.7593L18.8929 20.0718L16.6862 17.9506C16.211 17.494 15.4475 17.4987 14.9771 17.9615C14.5084 18.4244 14.5132 19.1681 14.9884 19.6246L18.0537 22.5743Z" fill="#FFA500"/>
</svg>
