<svg width="40" height="39" viewBox="0 0 40 39" fill="none" xmlns="http://www.w3.org/2000/svg">
<path d="M29.4696 22.9122C29.0552 23.3138 28.8648 23.8946 28.9592 24.4642L30.3816 32.3362C30.5016 33.0034 30.22 33.6786 29.6616 34.0642C29.1144 34.4642 28.3864 34.5122 27.7896 34.1922L20.7032 30.4962C20.4568 30.365 20.1832 30.2946 19.9032 30.2866H19.4696C19.3192 30.309 19.172 30.357 19.0376 30.4306L11.9496 34.1442C11.5992 34.3202 11.2024 34.3826 10.8136 34.3202C9.86639 34.141 9.23439 33.2386 9.38959 32.2866L10.8136 24.4146C10.908 23.8402 10.7176 23.2562 10.3032 22.8482L4.52559 17.2482C4.04239 16.7794 3.87439 16.0754 4.09519 15.4402C4.30959 14.8066 4.85679 14.3442 5.51759 14.2402L13.4696 13.0866C14.0744 13.0242 14.6056 12.6562 14.8776 12.1122L18.3816 4.92821C18.4648 4.76821 18.572 4.62101 18.7016 4.49621L18.8456 4.38421C18.9208 4.30101 19.0072 4.23221 19.1032 4.17621L19.2776 4.11221L19.5496 4.00021H20.2232C20.8248 4.06261 21.3544 4.42261 21.6312 4.96021L25.1816 12.1122C25.4376 12.6354 25.9352 12.9986 26.5096 13.0866L34.4616 14.2402C35.1336 14.3362 35.6952 14.8002 35.9176 15.4402C36.1272 16.0818 35.9464 16.7858 35.4536 17.2482L29.4696 22.9122Z" fill="#FFA500"/>
</svg>
